<?xml version="1.0" encoding="UTF-8"?>
<svg id="Layer_1" data-name="Layer 1" xmlns="http://www.w3.org/2000/svg" viewBox="0 0 160 160">
  <defs>
    <style>
      .cls-1 {
        fill: #fff;
      }

      .cls-2 {
        fill: #111827;
      }
    </style>
  </defs>
  <rect class="cls-2" width="160" height="160" rx="41.43" ry="41.43"/>
  <path class="cls-1" d="M122.34,43.38l-10.53,20.76-1.81-1.03c.04-.43.06-.78.06-1.03,0-1.46-1.25-3.04-3.75-4.72-7.67-5.34-16.67-8.01-27-8.01-4.56,0-8.59.56-12.08,1.68-2.54.86-4.6,2.15-6.17,3.87-1.57,1.72-2.36,3.59-2.36,5.61,0,3.31,2,5.57,6.01,6.78,2.07.6,6.5,1.25,13.31,1.94l10.14,1.03c6.03.65,10.91,1.53,14.63,2.65s7.03,2.69,9.92,4.71c2.93,2.11,5.24,4.88,6.94,8.33,1.7,3.44,2.55,7.12,2.55,11.04,0,6.2-2,11.7-6.01,16.52-3.62,4.39-9.24,7.64-16.86,9.75-5.68,1.59-11.78,2.39-18.28,2.39-11.67,0-23.19-2.8-34.56-8.4-2.41-1.12-3.85-1.68-4.33-1.68-.56,0-1.44.48-2.65,1.42l-1.87-.97,9.56-21.64,1.87.9v.84c0,1.94.93,3.73,2.78,5.36,2.8,2.5,7.13,4.65,12.98,6.46s11.41,2.71,16.67,2.71c5.73,0,10.62-.97,14.66-2.9,2.24-1.07,4.03-2.5,5.36-4.29,1.33-1.78,2-3.64,2-5.58,0-2.92-1.57-5.01-4.72-6.25-2.2-.86-6.63-1.65-13.31-2.39l-9.95-1.03c-6.67-.69-11.39-1.35-14.15-1.97-2.76-.62-5.51-1.63-8.27-3.01-3.92-1.94-7-4.85-9.24-8.73-2.02-3.49-3.04-7.5-3.04-12.02,0-7.46,2.56-13.62,7.69-18.49,6.72-6.42,16.79-9.63,30.23-9.63,5.64,0,10.9.57,15.76,1.72,4.87,1.15,10.94,3.25,18.22,6.32,2.5.99,4.03,1.49,4.59,1.49.9,0,1.96-.5,3.17-1.49l1.81.97Z"/>
</svg>